<?xml version="1.0" standalone="no"?>
<!DOCTYPE svg PUBLIC "-//W3C//DTD SVG 1.1//EN" "http://www.w3.org/Graphics/SVG/1.1/DTD/svg11.dtd">
<!--Generator: Xara Designer (www.xara.com), SVG filter version: 6.7.0.0-->
<svg fill="none" fill-rule="evenodd" stroke="black" stroke-width="0.501" stroke-linejoin="bevel" stroke-miterlimit="10" font-family="Times New Roman" font-size="16" style="font-variant-ligatures:none" xmlns:xlink="http://www.w3.org/1999/xlink" xmlns="http://www.w3.org/2000/svg" version="1.1" overflow="visible" width="37.502pt" height="37.502pt" viewBox="1343.65 -3540.75 37.502 37.502">
 <defs>
	</defs>
 <g id="MouseOff" transform="scale(1 -1)">
  <path d="M 1362.4,3540.75 C 1357.43,3540.75 1352.66,3538.78 1349.14,3535.26 C 1345.63,3531.74 1343.65,3526.97 1343.65,3522 C 1343.65,3517.03 1345.63,3512.26 1349.14,3508.74 C 1352.66,3505.23 1357.43,3503.25 1362.4,3503.25 C 1367.37,3503.25 1372.14,3505.23 1375.66,3508.74 C 1379.18,3512.26 1381.15,3517.03 1381.15,3522 C 1381.15,3526.97 1379.18,3531.74 1375.66,3535.26 C 1372.14,3538.78 1367.37,3540.75 1362.4,3540.75 Z M 1353.07,3527.96 C 1353.14,3528.3 1353.29,3528.61 1353.51,3528.87 C 1353.75,3529.18 1354.13,3529.36 1354.53,3529.36 L 1357.83,3529.36 L 1370.03,3529.36 C 1370.44,3529.37 1370.83,3529.24 1371.15,3528.98 C 1371.46,3528.73 1371.68,3528.37 1371.75,3527.97 L 1371.75,3527.92 C 1371.82,3527.3 1371.66,3526.68 1371.31,3526.17 C 1370.91,3525.57 1370.4,3525.06 1369.81,3524.67 C 1368.07,3523.5 1366.34,3522.29 1364.62,3521.08 C 1364.14,3520.71 1363.62,3520.39 1363.08,3520.13 C 1362.64,3519.92 1362.13,3519.93 1361.7,3520.15 C 1361.22,3520.4 1360.76,3520.68 1360.32,3520.99 C 1358.84,3521.99 1357.37,3523 1355.91,3524.04 C 1355.24,3524.46 1354.61,3524.95 1354.04,3525.5 C 1353.62,3525.91 1353.31,3526.41 1353.12,3526.97 C 1353.03,3527.29 1353.01,3527.63 1353.07,3527.96 Z M 1370.06,3514.63 L 1356.95,3514.63 L 1354.73,3514.63 C 1354.27,3514.63 1353.84,3514.82 1353.52,3515.14 C 1353.2,3515.46 1353.02,3515.9 1353.03,3516.35 L 1353.03,3522.03 L 1353.03,3524.66 C 1353.8,3523.81 1354.75,3523.3 1355.62,3522.69 C 1357.1,3521.64 1358.59,3520.61 1360.07,3519.56 C 1360.53,3519.24 1361.04,3518.98 1361.57,3518.81 C 1362.12,3518.64 1362.7,3518.65 1363.25,3518.83 C 1363.82,3519.03 1364.37,3519.31 1364.86,3519.67 C 1366.79,3521.02 1368.73,3522.35 1370.65,3523.71 C 1371.03,3523.97 1371.38,3524.28 1371.75,3524.59 L 1371.75,3523.4 C 1371.75,3521.05 1371.73,3518.7 1371.75,3516.35 L 1371.75,3516.35 C 1371.74,3515.9 1371.56,3515.47 1371.25,3515.15 C 1370.93,3514.83 1370.51,3514.64 1370.06,3514.63 Z" stroke="none" stroke-linecap="round" fill="#323232" stroke-width="0.75" stroke-linejoin="miter" marker-start="none" marker-end="none"/>
 </g>
 <g id="MouseOver" transform="scale(1 -1)"/>
</svg>
