<?xml version="1.0" standalone="no"?>
<!DOCTYPE svg PUBLIC "-//W3C//DTD SVG 1.1//EN" "http://www.w3.org/Graphics/SVG/1.1/DTD/svg11.dtd">
<!--Generator: Xara Designer (www.xara.com), SVG filter version: 6.7.0.0-->
<svg fill="none" fill-rule="evenodd" stroke="black" stroke-width="0.501" stroke-linejoin="bevel" stroke-miterlimit="10" font-family="Times New Roman" font-size="16" style="font-variant-ligatures:none" xmlns:xlink="http://www.w3.org/1999/xlink" xmlns="http://www.w3.org/2000/svg" version="1.1" overflow="visible" width="45.942pt" height="45.118pt" viewBox="476.48 -204.385 45.942 45.118">
 <defs>
	</defs>
 <g id="MouseOff" transform="scale(1 -1)">
  <g id="Group" stroke-linejoin="miter" stroke-linecap="round" stroke="none" stroke-width="0.75" fill="#575757">
   <path d="M 492.327,173.696 C 494.362,170.83 496.346,168.323 497.649,166.723 C 497.934,166.369 498.2,166.052 498.44,165.759 L 498.83,165.288 C 498.992,165.113 499.219,165.014 499.456,165.015 C 499.695,165.016 499.922,165.12 500.08,165.297 L 500.462,165.759 C 500.702,166.052 500.968,166.369 501.249,166.718 C 502.557,168.32 504.54,170.827 506.575,173.691 C 508.542,176.406 510.311,179.256 511.872,182.223 C 513.43,185.283 514.217,187.764 514.217,189.593 C 514.205,193.501 512.646,197.244 509.881,200.006 L 509.869,200.016 L 509.861,200.023 C 507.098,202.787 503.359,204.351 499.452,204.385 C 495.532,204.385 491.776,202.827 489.006,200.055 C 486.232,197.283 484.678,193.518 484.685,189.594 C 484.685,187.767 485.473,185.286 487.03,182.223 C 488.592,179.257 490.36,176.408 492.327,173.696 Z M 493.65,196.239 C 495.185,197.783 497.275,198.648 499.452,198.641 C 499.903,198.641 500.272,198.277 500.272,197.823 C 500.272,197.369 499.903,197.003 499.452,197.003 C 496.321,197.003 493.626,194.79 493.015,191.72 C 492.403,188.648 494.048,185.575 496.94,184.376 C 499.832,183.178 503.17,184.19 504.908,186.793 C 506.647,189.397 506.306,192.865 504.09,195.08 C 503.878,195.286 503.792,195.592 503.867,195.877 C 503.943,196.165 504.168,196.387 504.455,196.465 C 504.74,196.54 505.044,196.454 505.252,196.239 C 507.598,193.894 508.299,190.366 507.03,187.3 C 505.761,184.234 502.771,182.237 499.452,182.237 C 496.133,182.237 493.141,184.234 491.872,187.3 C 490.603,190.366 491.304,193.894 493.65,196.239 Z" marker-start="none" marker-end="none"/>
   <path d="M 522.321,160.456 L 517.275,169.48 C 517.11,169.764 516.804,169.937 516.473,169.93 L 505.849,169.93 C 504.563,168.224 503.389,166.753 502.522,165.688 C 502.325,165.441 502.146,165.229 501.964,165.01 L 506.013,165.01 C 506.466,165.01 506.834,164.643 506.834,164.189 C 506.834,163.735 506.466,163.369 506.013,163.369 L 499.472,163.369 L 499.452,163.369 L 499.429,163.369 L 492.889,163.369 C 492.436,163.369 492.068,163.735 492.068,164.189 C 492.068,164.643 492.436,165.01 492.889,165.01 L 496.936,165.01 C 496.756,165.229 496.576,165.444 496.376,165.693 C 495.508,166.756 494.337,168.224 493.053,169.93 L 482.429,169.93 C 482.102,169.938 481.795,169.768 481.629,169.484 L 476.582,160.461 C 476.444,160.229 476.446,159.94 476.588,159.709 C 476.754,159.428 477.059,159.259 477.383,159.267 L 521.52,159.267 C 521.843,159.259 522.148,159.427 522.314,159.707 C 522.456,159.935 522.458,160.224 522.321,160.456 Z M 487.967,160.907 L 481.403,160.907 C 480.949,160.907 480.583,161.274 480.583,161.728 C 480.583,162.181 480.949,162.548 481.403,162.548 L 487.967,162.548 C 488.42,162.548 488.787,162.181 488.787,161.728 C 488.787,161.274 488.42,160.907 487.967,160.907 Z M 490.29,164.553 C 490.168,164.372 489.981,164.247 489.768,164.205 C 489.554,164.162 489.334,164.206 489.152,164.327 L 486.901,165.829 L 483.865,165.829 C 483.411,165.829 483.044,166.196 483.044,166.649 C 483.044,167.103 483.411,167.47 483.865,167.47 L 487.146,167.47 C 487.309,167.469 487.466,167.422 487.601,167.333 L 490.062,165.691 C 490.244,165.57 490.368,165.383 490.411,165.17 C 490.455,164.956 490.41,164.735 490.29,164.553 Z M 509.295,164.189 C 508.933,164.189 508.616,164.425 508.509,164.771 C 508.404,165.116 508.539,165.491 508.839,165.691 L 511.3,167.333 C 511.436,167.422 511.593,167.47 511.756,167.47 L 515.037,167.47 C 515.491,167.47 515.858,167.103 515.858,166.649 C 515.858,166.196 515.491,165.829 515.037,165.829 L 512.001,165.829 L 509.747,164.327 C 509.614,164.238 509.456,164.189 509.295,164.189 Z M 517.499,160.907 L 510.935,160.907 C 510.483,160.907 510.115,161.274 510.115,161.728 C 510.115,162.181 510.482,162.548 510.935,162.548 L 517.499,162.548 C 517.953,162.548 518.318,162.181 518.318,161.728 C 518.318,161.274 517.953,160.907 517.499,160.907 Z" marker-start="none" marker-end="none"/>
  </g>
 </g>
 <g id="MouseOver" transform="scale(1 -1)"/>
</svg>
