<?xml version="1.0" standalone="no"?>
<!DOCTYPE svg PUBLIC "-//W3C//DTD SVG 1.1//EN" "http://www.w3.org/Graphics/SVG/1.1/DTD/svg11.dtd">
<!--Generator: Xara Designer (www.xara.com), SVG filter version: 6.7.0.0-->
<svg fill="none" fill-rule="evenodd" stroke="black" stroke-width="0.501" stroke-linejoin="bevel" stroke-miterlimit="10" font-family="Times New Roman" font-size="16" style="font-variant-ligatures:none" xmlns:xlink="http://www.w3.org/1999/xlink" xmlns="http://www.w3.org/2000/svg" version="1.1" overflow="visible" width="43.21pt" height="39.192pt" viewBox="754.71 -201.422 43.21 39.192">
 <defs>
	</defs>
 <g id="MouseOff" transform="scale(1 -1)">
  <path d="M 764.143,177.222 C 764.143,185.484 771.734,192.212 781.078,192.212 C 790.382,192.212 797.962,185.484 797.92,177.222 C 797.92,174.062 796.839,170.99 794.761,168.46 C 795.121,167.781 795.663,167.197 796.295,166.788 C 796.969,166.339 797.287,165.571 797.108,164.804 C 796.927,164.036 796.295,163.45 795.53,163.362 C 794.983,163.269 794.444,163.222 793.902,163.222 C 792.277,163.222 790.789,163.583 789.428,164.218 C 786.859,162.904 783.969,162.23 781.036,162.23 C 771.734,162.23 764.143,168.953 764.143,177.222 Z M 788.754,167.239 L 789.476,167.646 L 790.2,167.197 C 790.967,166.698 791.822,166.43 792.773,166.292 C 792.365,166.878 792.005,167.557 791.735,168.281 L 791.416,169.094 L 792.005,169.721 C 793.99,171.843 795.03,174.464 795.077,177.354 C 795.077,184.039 788.802,189.455 781.078,189.455 C 773.356,189.455 767.083,184.039 767.083,177.354 C 767.083,170.671 773.356,165.252 781.078,165.252 C 783.833,165.252 786.452,165.93 788.754,167.239 Z M 782.071,170.854 C 780.042,171.843 778.283,173.248 776.79,174.962 C 775.703,176.274 774.804,177.626 774.218,179.252 C 773.945,180.021 773.72,180.832 773.809,181.641 C 773.855,182.141 774.033,182.594 774.439,182.954 C 774.845,183.36 775.254,183.767 775.616,184.126 C 776.159,184.626 776.79,184.626 777.29,184.126 C 777.603,183.813 777.917,183.496 778.236,183.179 C 778.55,182.863 778.865,182.547 779.182,182.231 C 779.722,181.688 779.722,181.056 779.182,180.516 C 778.775,180.11 778.413,179.7 778.007,179.342 C 777.917,179.252 777.917,179.163 777.964,179.026 C 778.236,178.391 778.592,177.852 779.001,177.311 C 779.859,176.274 780.806,175.322 781.977,174.598 C 782.207,174.464 782.526,174.33 782.75,174.194 C 782.885,174.15 782.975,174.15 783.065,174.241 C 783.471,174.645 783.878,175.054 784.24,175.413 C 784.779,175.955 785.414,175.955 785.912,175.413 C 786.632,174.78 787.263,174.15 787.899,173.515 C 788.437,172.976 788.437,172.345 787.899,171.801 C 787.533,171.44 787.131,171.08 786.814,170.715 C 786.316,170.176 785.684,169.95 784.963,169.997 C 783.969,170.041 783.022,170.406 782.071,170.854 Z M 755.752,177.764 C 755.386,177.805 755.296,178.258 755.611,178.484 C 756.835,179.252 757.465,180.335 757.824,181.326 C 755.884,183.449 754.71,186.161 754.71,189.092 C 754.71,195.913 761.032,201.422 768.797,201.422 C 774.08,201.422 778.686,198.892 781.078,195.102 C 770.604,195.102 762.024,187.877 761.167,178.712 C 759.179,177.537 757.014,177.579 755.752,177.764 Z" stroke-linecap="round" stroke="none" fill="#575757" stroke-width="0.75" stroke-linejoin="miter" marker-start="none" marker-end="none"/>
 </g>
 <g id="MouseOver" transform="scale(1 -1)"/>
</svg>
