<?xml version="1.0" standalone="no"?>
<!DOCTYPE svg PUBLIC "-//W3C//DTD SVG 1.1//EN" "http://www.w3.org/Graphics/SVG/1.1/DTD/svg11.dtd">
<!--Generator: Xara Designer (www.xara.com), SVG filter version: 6.7.0.0-->
<svg fill="none" fill-rule="evenodd" stroke="black" stroke-width="0.501" stroke-linejoin="bevel" stroke-miterlimit="10" font-family="Times New Roman" font-size="16" style="font-variant-ligatures:none" xmlns:xlink="http://www.w3.org/1999/xlink" xmlns="http://www.w3.org/2000/svg" version="1.1" overflow="visible" width="37.5pt" height="37.5pt" viewBox="1371.75 -3653.93 37.5 37.5">
 <defs>
	</defs>
 <g id="MouseOff" transform="scale(1 -1)">
  <path d="M 1390.5,3653.93 C 1400.83,3653.93 1409.25,3645.52 1409.25,3635.18 C 1409.25,3624.85 1400.83,3616.43 1390.5,3616.43 C 1380.17,3616.43 1371.75,3624.85 1371.75,3635.18 C 1371.75,3645.52 1380.17,3653.93 1390.5,3653.93 Z M 1384.25,3634.56 C 1385,3633.52 1385.92,3632.56 1386.92,3631.56 C 1387.92,3630.56 1388.88,3629.6 1389.92,3628.89 C 1393.38,3626.43 1396.75,3625.64 1398.21,3627.1 L 1399.54,3628.43 C 1399.88,3628.81 1399.38,3629.85 1398.42,3630.81 C 1397.46,3631.77 1396.38,3632.27 1396.04,3631.93 L 1394.83,3630.73 L 1394.92,3630.81 C 1394.08,3629.98 1392.46,3630.23 1390.71,3631.23 C 1389.96,3631.68 1389.21,3632.35 1388.5,3633.06 C 1387.79,3633.77 1387.17,3634.43 1386.71,3635.18 C 1385.62,3636.98 1385.38,3638.64 1386.21,3639.48 L 1386.12,3639.39 L 1387.33,3640.6 C 1387.67,3640.93 1387.17,3642.02 1386.21,3642.98 C 1385.25,3643.93 1384.17,3644.43 1383.83,3644.1 L 1382.5,3642.77 C 1381,3641.35 1381.83,3638.02 1384.25,3634.56 Z" stroke="none" stroke-linecap="round" fill="#323232" stroke-width="0.75" stroke-linejoin="miter" marker-start="none" marker-end="none"/>
 </g>
 <g id="MouseOver" transform="scale(1 -1)"/>
</svg>
